HIERARCHY
ROOT joint_Root
{
	OFFSET 0.0 0.0 0.0
	CHANNELS 6 Xposition Yposition Zposition Zrotation Xrotation Yrotation 
	JOINT Hips
	{
		OFFSET -17.1583 93.1646 452.98
		CHANNELS 6 Xposition Yposition Zposition Zrotation Xrotation Yrotation 
		JOINT Spine
		{
			OFFSET 15.7357 0.0 0.0
			CHANNELS 6 Xposition Yposition Zposition Zrotation Xrotation Yrotation 
			JOINT Chest
			{
				OFFSET 8.98455 -0.406207 0.0
				CHANNELS 6 Xposition Yposition Zposition Zrotation Xrotation Yrotation 
				JOINT Neck
				{
					OFFSET 16.3773 0.0 0.0
					CHANNELS 6 Xposition Yposition Zposition Zrotation Xrotation Yrotation 
					JOINT Head
					{
						OFFSET 6.45672 0.0 0.0
						CHANNELS 6 Xposition Yposition Zposition Zrotation Xrotation Yrotation 
						End Site
						{
							OFFSET 0.0 0.0 0.0
						}
					}
				}
				JOINT Shoulder_L
				{
					OFFSET 12.9942 -0.242716 4.98039
					CHANNELS 6 Xposition Yposition Zposition Zrotation Xrotation Yrotation 
					JOINT UpperArm_L
					{
						OFFSET 5.34809 0.0 0.0
						CHANNELS 6 Xposition Yposition Zposition Zrotation Xrotation Yrotation 
						JOINT LowerArm_L
						{
							OFFSET 24.3286 1.87007e-05 0.0
							CHANNELS 6 Xposition Yposition Zposition Zrotation Xrotation Yrotation 
							JOINT Hand_L
							{
								OFFSET 22.2916 0.0 0.0
								CHANNELS 6 Xposition Yposition Zposition Zrotation Xrotation Yrotation 
								End Site
								{
									OFFSET 0.0 0.0 0.0
								}
							}
						}
					}
				}
				JOINT Shoulder_R
				{
					OFFSET 12.9945 -0.242716 -4.98039
					CHANNELS 6 Xposition Yposition Zposition Zrotation Xrotation Yrotation 
					JOINT UpperArm_R
					{
						OFFSET -5.34813 0.0 0.0
						CHANNELS 6 Xposition Yposition Zposition Zrotation Xrotation Yrotation 
						JOINT LowerArm_R
						{
							OFFSET -24.3289 0.000322201 0.0
							CHANNELS 6 Xposition Yposition Zposition Zrotation Xrotation Yrotation 
							JOINT Hand_R
							{
								OFFSET -22.2915 -0.000108084 0.0
								CHANNELS 6 Xposition Yposition Zposition Zrotation Xrotation Yrotation 
								End Site
								{
									OFFSET 0.0 0.0 0.0
								}
							}
						}
					}
				}
			}
		}
		JOINT UpperLeg_L
		{
			OFFSET -2.19248 -6.46944 0.0
			CHANNELS 6 Xposition Yposition Zposition Zrotation Xrotation Yrotation 
			JOINT LowerLeg_L
			{
				OFFSET 39.0811 0.0 -1.23785e-05
				CHANNELS 6 Xposition Yposition Zposition Zrotation Xrotation Yrotation 
				JOINT Foot_L
				{
					OFFSET 40.9854 0.0 -1.26872e-05
					CHANNELS 6 Xposition Yposition Zposition Zrotation Xrotation Yrotation 
					JOINT Toes_L
					{
						OFFSET 11.7543 0.0 0.0
						CHANNELS 6 Xposition Yposition Zposition Zrotation Xrotation Yrotation 
						End Site
						{
							OFFSET 0.0 0.0 0.0
						}
					}
				}
			}
		}
		JOINT UpperLeg_R
		{
			OFFSET -2.19251 6.46944 0.0
			CHANNELS 6 Xposition Yposition Zposition Zrotation Xrotation Yrotation 
			JOINT LowerLeg_R
			{
				OFFSET -39.0811 -0.00228153 -0.0401928
				CHANNELS 6 Xposition Yposition Zposition Zrotation Xrotation Yrotation 
				JOINT Foot_R
				{
					OFFSET -40.9854 0.0 0.0
					CHANNELS 6 Xposition Yposition Zposition Zrotation Xrotation Yrotation 
					JOINT Toes_R
					{
						OFFSET -11.7543 0.0 0.0
						CHANNELS 6 Xposition Yposition Zposition Zrotation Xrotation Yrotation 
						End Site
						{
							OFFSET 0.0 0.0 0.0
						}
					}
				}
			}
		}
	}
}
MOTION
Frames:	4
Frame Time:	0.0333333
0.000000 0.000000 0.000000 0.000000 0.000000 -0.000000 -3.043270 92.051900 1.364920 84.155300 -0.515835 0.305288 15.735700 0.000005 -0.000001 126.796000 88.856500 -124.249000 8.984550 -0.406207 -0.000000 -5.953740 1.063190 5.155600 16.377300 -0.000001 -0.000001 7.914790 2.184420 -12.236300 6.456720 -0.000001 -0.000000 6.688000 -3.147880 -20.341900 12.994200 -0.242716 4.980390 -92.769800 7.358050 -69.305600 5.348090 -0.000007 -0.000001 -73.935600 -3.734520 -6.307770 24.328600 0.000019 0.000005 41.244200 -44.836400 -128.805000 22.291600 -0.000001 0.000005 43.702000 5.041840 6.416220 12.994500 -0.242716 -4.980390 88.593900 4.425150 -72.352700 -5.348130 -0.000001 -0.000004 -72.233700 29.210900 -1.048200 -24.328900 0.000322 -0.000009 2.754740 7.671710 -19.827700 -22.291500 -0.000108 -0.000004 -0.023404 5.224640 2.093710 -2.192480 -6.469440 -0.000000 -172.187000 3.810690 -5.638120 39.081100 -0.000007 -0.000012 0.203559 -0.402785 26.811300 40.985400 -0.000006 -0.000013 -3.146500 5.351560 -75.501600 11.754300 -0.000000 0.000003 0.000393 0.160731 -10.058000 -2.192510 6.469440 -0.000001 -170.374000 5.324630 -178.332000 -39.081100 -0.002282 -0.040193 0.042702 -0.160309 13.798000 -40.985400 0.000008 0.000006 1.413010 2.615370 -70.437600 -11.754300 -0.000006 -0.000006 -0.012486 0.289025 -4.825610
0.000000 0.000000 0.000000 0.000000 0.000000 -0.000000 -3.025400 92.052200 1.336470 84.158300 -0.428333 0.273563 15.735700 0.000005 -0.000001 126.107000 88.851300 -123.566000 8.984550 -0.406207 -0.000000 -5.928660 1.048510 5.142700 16.377300 -0.000001 -0.000001 7.954780 2.178860 -12.128000 6.456720 -0.000001 -0.000000 6.647750 -3.058150 -20.051000 12.994200 -0.242716 4.980390 -92.771100 7.361060 -69.304000 5.348090 -0.000007 -0.000001 -73.944400 -3.756320 -6.306030 24.328600 0.000019 0.000005 41.347200 -44.827000 -128.699000 22.291600 -0.000001 0.000005 43.576200 5.045040 6.345850 12.994500 -0.242716 -4.980390 88.576700 4.470510 -72.319900 -5.348130 -0.000001 -0.000004 -72.213100 29.183700 -0.988092 -24.328900 0.000322 -0.000009 2.752980 7.693870 -19.763600 -22.291500 -0.000108 -0.000004 0.001541 5.225940 2.060340 -2.192480 -6.469440 -0.000000 -172.218000 3.840470 -5.716600 39.081100 -0.000007 -0.000012 0.211696 -0.418479 26.833800 40.985400 -0.000006 -0.000013 -2.991170 5.325040 -75.538500 11.754300 -0.000000 0.000003 0.000291 0.162574 -9.983130 -2.192510 6.469440 -0.000001 -170.361000 5.310140 -178.402000 -39.081100 -0.002282 -0.040193 0.044786 -0.168662 13.808500 -40.985400 0.000008 0.000006 1.517360 2.524060 -70.438400 -11.754300 -0.000006 -0.000006 -0.012548 0.289448 -4.808270
0.000000 0.000000 0.000000 0.000000 0.000000 -0.000000 -3.005310 92.061100 1.316250 84.166800 -0.386082 0.297605 15.735700 0.000005 -0.000001 125.642000 88.813100 -123.111000 8.984550 -0.406207 -0.000000 -5.856330 1.080790 5.121790 16.377300 -0.000001 -0.000001 7.995550 2.133920 -12.030200 6.456720 -0.000001 -0.000000 6.589460 -2.995260 -19.755900 12.994200 -0.242716 4.980390 -92.768200 7.363820 -69.331000 5.348090 -0.000007 -0.000001 -73.941100 -3.716700 -6.297720 24.328600 0.000019 0.000005 41.422000 -44.809000 -128.616000 22.291600 -0.000001 0.000005 43.654000 5.044810 6.351090 12.994500 -0.242716 -4.980390 88.565400 4.496070 -72.282300 -5.348130 -0.000001 -0.000004 -72.203800 29.097600 -0.963990 -24.328900 0.000322 -0.000009 2.731810 7.687900 -19.637100 -22.291500 -0.000108 -0.000004 0.044187 5.222350 2.152480 -2.192480 -6.469440 -0.000000 -172.235000 3.895530 -5.688130 39.081100 -0.000007 -0.000012 0.209992 -0.415783 26.796400 40.985400 -0.000006 -0.000013 -3.005750 5.351920 -75.529000 11.754300 -0.000000 0.000003 0.000223 0.163785 -9.933950 -2.192510 6.469440 -0.000001 -170.393000 5.348400 -178.387000 -39.081100 -0.002282 -0.040193 0.043784 -0.164762 13.794000 -40.985400 0.000008 0.000006 1.419870 2.520930 -70.423500 -11.754300 -0.000006 -0.000006 -0.012664 0.290238 -4.775900
0.000000 0.000000 0.000000 0.000000 0.000000 -0.000000 -2.967990 92.065200 1.284440 84.210200 -0.388516 0.285309 15.735700 0.000005 -0.000001 125.749000 88.793600 -123.245000 8.984550 -0.406207 -0.000000 -5.827790 1.110880 5.071580 16.377300 -0.000001 -0.000001 8.063160 2.136270 -11.901000 6.456720 -0.000001 -0.000000 6.543410 -2.915210 -19.501600 12.994200 -0.242716 4.980390 -92.779500 7.359850 -69.243600 5.348090 -0.000007 -0.000001 -73.910900 -3.722980 -6.299710 24.328600 0.000019 0.000005 41.526500 -44.794800 -128.507000 22.291600 -0.000001 0.000005 43.772300 5.036490 6.533240 12.994500 -0.242716 -4.980390 88.543600 4.553450 -72.241800 -5.348130 -0.000001 -0.000004 -72.120600 29.144700 -1.000440 -24.328900 0.000322 -0.000009 2.711760 7.725830 -19.415800 -22.291500 -0.000108 -0.000004 -0.004715 5.221780 2.167080 -2.192480 -6.469440 -0.000000 -172.310000 3.868170 -5.723750 39.081100 -0.000007 -0.000012 0.211581 -0.419193 26.781900 40.985400 -0.000006 -0.000013 -2.930340 5.319310 -75.505000 11.754300 -0.000000 0.000003 0.000217 0.163880 -9.930110 -2.192510 6.469440 -0.000001 -170.431000 5.271600 -178.428000 -39.081100 -0.002282 -0.040193 0.045708 -0.172284 13.818400 -40.985400 0.000008 0.000006 1.551820 2.413900 -70.469100 -11.754300 -0.000006 -0.000006 -0.012627 0.289983 -4.786320
